<svg xmlns="http://www.w3.org/2000/svg" width="30" height="30" viewBox="0 0 30 30">
  <g id="sair" transform="translate(-74.642 -3.198)">
    <path id="Caminho_21" data-name="Caminho 21" d="M104.642,18.2a15,15,0,1,1-15-15A14.995,14.995,0,0,1,104.642,18.2Zm-2.9,0a12.1,12.1,0,1,0-12.1,12.1A12.095,12.095,0,0,0,101.739,18.2Zm-9.7,0,3.76,3.763a.721.721,0,0,1,0,1.027l-1.365,1.368a.726.726,0,0,1-1.027,0l-3.763-3.763-3.763,3.763a.729.729,0,0,1-1.03,0l-1.365-1.368a.726.726,0,0,1,0-1.027l3.76-3.763-3.76-3.763a.729.729,0,0,1,0-1.03l1.365-1.365a.729.729,0,0,1,1.03,0L89.643,15.8l3.763-3.763a.726.726,0,0,1,1.027,0L95.8,13.407a.724.724,0,0,1,0,1.03Z" transform="translate(0 0)" fill="#fccd2a"/>
  </g>
</svg>
